<?xml version="1.0" encoding="utf-8"?>
<!-- Generator: Adobe Illustrator 27.8.1, SVG Export Plug-In . SVG Version: 6.00 Build 0)  -->
<svg version="1.1" id="Layer_1" xmlns="http://www.w3.org/2000/svg" xmlns:xlink="http://www.w3.org/1999/xlink" x="0px" y="0px"
	 viewBox="0 0 24 24" style="enable-background:new 0 0 24 24;" xml:space="preserve">
<g>
	<g>
		<g>
			<path fill="currentColor" d="M12,0.8c1.1,0,1.9,0.9,1.9,1.9S13.1,4.6,12,4.6s-1.9-0.9-1.9-1.9S10.9,0.8,12,0.8c-1.7,0-3,1.3-3,3
				s1.3,3,3,3s3-1.3,3-3S13.7,0.8,12,0.8z"/>
			<path fill="currentColor" d="M10.9,1.9C10.9,2.5,11.4,3,12,3c0.6,0,1.1-0.5,1.1-1.1c0-0.6-0.5-1.1-1.1-1.1C11.4,0.8,10.9,1.3,10.9,1.9z"
				/>
		</g>
	</g>
	<g>
		<path fill="currentColor" d="M12.5,22.8L17,9c0.1-0.3-0.1-0.7-0.5-0.7h-9C7.1,8.3,6.9,8.7,7,9l4.5,13.8C11.7,23.3,12.3,23.3,12.5,22.8z"/>
		<g>
			<g>
				<polygon fill="currentColor" points="7.2,13.9 4.3,23.2 10.1,23.2 				"/>
				<polygon fill="currentColor" points="16.8,13.9 13.9,23.2 19.7,23.2 				"/>
			</g>
		</g>
	</g>
</g>
</svg>
