<?xml version="1.0" encoding="utf-8"?>
<!-- Generator: Adobe Illustrator 27.8.1, SVG Export Plug-In . SVG Version: 6.00 Build 0)  -->
<svg version="1.1" id="Layer_1" xmlns="http://www.w3.org/2000/svg" xmlns:xlink="http://www.w3.org/1999/xlink" x="0px" y="0px"
	 viewBox="0 0 24 24" style="enable-background:new 0 0 24 24;" xml:space="preserve">
<style type="text/css">
	.st0{fill:#FFFFFF;}
</style>
<g>
	<g>
		<g>
			<path d="M40.3,0.8c1.1,0,1.9,0.9,1.9,1.9s-0.8,1.9-1.9,1.9c-1.1,0-1.9-0.9-1.9-1.9S39.2,0.8,40.3,0.8c-1.7,0-3,1.3-3,3s1.3,3,3,3
				s3-1.3,3-3S42,0.8,40.3,0.8z"/>
			<path d="M39.2,1.9c0,0.6,0.5,1.1,1.1,1.1c0.6,0,1.1-0.5,1.1-1.1s-0.5-1.1-1.1-1.1C39.7,0.8,39.2,1.3,39.2,1.9z"/>
		</g>
	</g>
	<g>
		<path d="M40.8,22.8L45.3,9c0.1-0.3-0.1-0.7-0.5-0.7h-9c-0.4,0-0.6,0.4-0.5,0.7l4.5,13.8C40,23.3,40.6,23.3,40.8,22.8z"/>
		<g>
			<g>
				<polygon points="35.5,13.9 32.6,23.2 38.4,23.2 				"/>
				<polygon points="45.1,13.9 42.2,23.2 48,23.2 				"/>
			</g>
		</g>
	</g>
</g>
<g>
	<g>
		<path d="M4.9,13.1c-0.5,0.8-0.4,0.5,0,0.3c0.2-0.1,0.4-0.2,0.6-0.2C5.7,13.1,6,13,6.3,12.9c0-0.1,0-0.1,0-0.2
			c-0.2,0.5-0.2,0.9-0.1,1.4c0,0.4,0.1,0.9,0.3,1.3c0.3,0.5,0.7,0.9,1,1.4c0.3,0.5,0.6,1.1,0.6,1.7c0,0.2,0.1,0,0.2-0.1
			c0.2-0.2,0.4-0.5,0.5-0.7c0.2-0.3,0.4-0.7,0.6-1c0.1-0.2,0.3-0.4,0.3-0.6c0-0.6-0.2-1.1-0.5-1.6c-0.3-0.5-0.7-0.9-1-1.4
			c-0.2-0.4-0.4-0.8-0.4-1.2c0-0.2,0-0.5,0-0.7c0-0.1,0-0.2,0-0.3c0,0,0-0.1,0-0.1c0,0,0.1-0.2,0-0.1c0-0.1,0.1-0.1,0-0.2
			c-0.3,0.1-0.7,0.2-1,0.4c-0.2,0.1-0.4,0.2-0.6,0.3c-0.3,0.2-0.5,0.5-0.7,0.7c-0.4,0.6-0.8,1.2-1,1.8c0,0.1-0.1,0.2,0,0.2
			C4.6,13.6,4.8,13.2,4.9,13.1L4.9,13.1z"/>
	</g>
</g>
<g>
	<g>
		<path d="M8.3,18.5c0.3-0.3,0.5-0.6,0.7-1c0.3-0.5,0.7-1.1,1-1.6c0.3-0.7,0.7-1.3,1-2c0,0,0.2-0.4,0.1-0.4c-0.1,0-0.3,0.4-0.3,0.3
			c-0.4,0.6-0.8,1.2-1.1,1.8c-0.1,0.2-0.2,0.4-0.3,0.6c0,0.1,0,0.1-0.1,0.2c0,0,0,0,0,0.1c-0.1,0.2,0.1-0.1,0.1-0.1
			c-0.1,0.1-0.1,0.2-0.2,0.3c0,0,0,0,0,0.1c0,0,0.2-0.4,0.1-0.2c0,0.1-0.2,0.3,0,0c0.2-0.3,0-0.1,0,0c0.3-0.5,0.2-0.3,0.1-0.2
			c0,0.1-0.1,0.2,0-0.1c0.2-0.3,0-0.1,0,0c0,0,0.2-0.3,0.1-0.1c0,0,0,0,0,0.1c-0.1,0.1,0.2-0.2,0.1-0.1c0,0,0,0,0,0.1
			c0,0-0.1,0.1-0.1,0.1c-0.2,0.2-0.4,0.5-0.5,0.7c-0.2,0.3-0.4,0.7-0.6,1c0,0.1-0.1,0.2-0.1,0.3c-0.1,0.1-0.1,0.2-0.1,0.4
			C8.1,18.8,8.3,18.6,8.3,18.5L8.3,18.5z"/>
	</g>
</g>
<g>
	<g>
		<path d="M9.8,15c0.3,0.1,0.6-0.1,0.9-0.3c0.4-0.5,0.7-1.1,1-1.6c0.1-0.2,0.2-0.4,0.3-0.7c0,0,0.1-0.3,0-0.2
			c-0.6,0.6-1,1.4-1.3,2.1c-0.2,0.4-0.4,0.8-0.3,1.2c0,0.3,0.2,0.5,0.4,0.7c0.2,0.3,0.3,0.5,0.3,0.8c0,0,0,0,0-0.1
			c0,0.3,0,0.5-0.1,0.7c0,0-0.1,0.2,0,0.1c0,0.1,0,0.1-0.1,0.2c0,0.1,0,0.1,0-0.1c0.3-0.6,0.6-1.1,1-1.7c0.1-0.1,0,0,0,0
			c-0.2,0.1-0.3,0.4-0.4,0.6c-0.2,0.3-0.4,0.7-0.6,1c-0.1,0.3-0.3,0.5-0.4,0.8c0,0-0.1,0.3,0,0.2c0.2-0.2,0.4-0.4,0.5-0.6
			c0.4-0.5,0.7-1.1,1-1.6c0.2-0.5,0.4-0.9,0.5-1.4c0.1-0.3,0-0.7-0.1-1c-0.1-0.2-0.2-0.4-0.3-0.6c-0.1-0.2-0.2-0.4-0.3-0.6
			c0,0,0,0,0,0.1c0-0.1,0-0.1,0-0.2c0,0,0,0,0-0.1c0.1-0.4-0.1-0.1-0.5,1c-0.2,0.3-0.4,0.6-0.6,0.9c0,0.1-0.1,0.1-0.1,0.2
			c0.4-0.8,0.8-1.6,1.3-2.4c0.1-0.2,0.1-0.1,0,0c-0.1,0-0.1,0.1-0.2,0.1c0,0,0,0,0.1,0c-0.2,0.1-0.3,0.1-0.5,0
			c-0.1,0-0.3,0.3-0.3,0.3c-0.2,0.3-0.4,0.6-0.6,0.9C10.4,13.7,9.7,15,9.8,15L9.8,15z"/>
	</g>
</g>
<g>
	<g>
		<path d="M11.4,17.6c0.7-1.3,1.3-2.6,2-3.9c0.3-0.7,0.7-1.4,1-2.1c0.3-0.7,0.6-1.3,0.6-2.1c0-0.2-0.2,0.1-0.2,0.1
			c-0.2,0.2-0.4,0.5-0.5,0.7c-0.2,0.3-0.4,0.7-0.6,1c-0.1,0.2-0.3,0.4-0.3,0.6c0,0.6-0.3,1.1-0.5,1.7c-0.3,0.6-0.5,1-0.8,1.6
			c-0.6,1.2-1.2,2.3-1.8,3.5c0,0.1-0.5,1-0.1,0.6C10.8,18.9,11.1,18.2,11.4,17.6L11.4,17.6z"/>
	</g>
</g>
<g>
	<g>
		<path d="M13,11.2c0.1,0.2,0.1,0.4,0.2,0.6c0.1,0.1,0.1,0.3,0.3,0.3c0.1,0,0.2,0,0.3,0c0.1,0,0.1,0,0.2,0c0.1,0,0.2-0.1,0.3-0.2
			c0.1-0.1,0.2-0.2,0.2-0.3c0.1-0.1,0.2-0.3,0.3-0.4c0.2-0.3,0.4-0.7,0.6-1c0-0.1,0.1-0.2,0.1-0.3c0.1-0.1,0.1-0.2,0.1-0.4
			c0,0,0,0,0-0.1c-0.1,0-0.1,0.1-0.2,0.1c0,0,0,0,0,0c0,0,0.1-0.1,0.1-0.1c0,0,0,0-0.1,0c0,0,0,0,0.1,0c-0.1,0-0.2,0.1-0.3,0.1
			c-0.1,0-0.2,0-0.3,0c-0.1-0.1-0.2-0.2-0.3-0.3c0-0.1-0.1-0.2-0.1-0.3c0-0.1-0.1-0.2-0.1-0.3c0,0-0.1,0-0.1,0.1
			c-0.1,0.1-0.1,0.2-0.2,0.2c-0.2,0.3-0.4,0.6-0.6,0.9c-0.2,0.3-0.4,0.6-0.5,0.9c0,0.1-0.1,0.1-0.1,0.2C13,11,13,11.1,13,11.2
			L13,11.2z"/>
	</g>
</g>
<g>
	<g>
		<path d="M13.9,13.5c-0.3,1.7-0.7,3.4-1.1,5c-0.1,0.2,0.2-0.1,0.2-0.1c0.1-0.2,0.2-0.3,0.4-0.4c0,0,0,0-0.1,0c0.1,0,0.1,0,0.2,0
			c0.1,0,0.3-0.3,0.3-0.3c0.2-0.3,0.4-0.6,0.6-0.9c0.2-0.3,0.4-0.6,0.5-0.9c0,0,0.2-0.4,0.1-0.4c-0.4,0-0.7,0.4-0.9,0.7
			c0.1,0,0.1,0,0.2-0.1c0.4-1.7,0.8-3.3,1.1-5c0-0.2-0.2,0.1-0.2,0.1c-0.2,0.2-0.4,0.5-0.5,0.7c-0.2,0.3-0.4,0.7-0.6,1
			C14.1,13,13.9,13.3,13.9,13.5L13.9,13.5z"/>
	</g>
</g>
<g>
	<g>
		<path d="M15.9,8.7c0,0.1-0.1,0.2-0.1,0.3c0,0.1,0,0.1,0,0.2c0,0,0,0.1,0.1,0.1c0.1,0.1,0.2,0.1,0.3,0.1c0.2,0,0.5,0,0.7-0.1
			c0.2,0,0.4-0.1,0.6-0.2c0.2-0.1,0.3-0.2,0.5-0.4c0.2-0.2,0.4-0.5,0.5-0.7c0.2-0.3,0.4-0.7,0.6-1c0-0.1,0.1-0.2,0.1-0.3
			c0.1-0.1,0.1-0.2,0.1-0.4c0,0,0,0,0-0.1c-0.1,0-0.1,0.1-0.2,0.1c-0.1,0.1,0.1-0.1,0,0c0,0,0,0,0,0c0,0-0.1,0.1-0.1,0.1
			c-0.1,0.1-0.2,0.1-0.3,0.1c0,0,0,0,0.1,0c-0.2,0.1-0.5,0.2-0.8,0.2c-0.1,0-0.3,0-0.4,0c-0.1,0-0.3,0-0.3-0.1c0,0,0,0,0,0.1
			c0,0,0,0,0,0c0,0.1-0.1,0.2-0.1,0.4c0,0,0,0,0,0c0,0,0.2-0.4,0.1-0.4c-0.1,0-0.3,0.4-0.3,0.3c-0.2,0.3-0.4,0.6-0.6,0.9
			C16.2,8.1,16,8.4,15.9,8.7L15.9,8.7z"/>
	</g>
</g>
<g>
	<g>
		<path d="M15.4,17.9c0.3,0,0.8-1,0.9-1.2c0.1-0.1,0.6-1.4,0.6-1.4c-0.3,0-0.8,1-0.9,1.2C15.9,16.6,15.3,17.9,15.4,17.9L15.4,17.9z"
			/>
	</g>
</g>
<g>
	<g>
		<path d="M18.2,6.9c-0.5,0.6-0.9,1.3-1.2,2c-0.2,0.4-0.4,0.8-0.4,1.3c-0.1,0.9-0.2,1.9-0.3,2.8c-0.3,1.8-0.7,3.7-1.1,5.5
			c-0.1,0.2,0.2-0.1,0.2-0.1c0.2-0.2,0.4-0.5,0.5-0.7c0.3-0.5,0.7-1.1,0.8-1.7c0.4-1.5,0.7-2.9,1-4.4c0.1-0.7,0.2-1.5,0.3-2.2
			c0-0.3,0.1-0.7,0.1-1c0-0.3,0-0.7,0.1-1c-0.3,0.5-0.5,1-0.8,1.5C17.3,8.8,17.1,9,17,9.2c0.4-0.5,0.8-1.2,1.1-1.8
			C18.2,7.3,18.6,6.5,18.2,6.9L18.2,6.9z"/>
	</g>
</g>
<g>
	<g>
		<path d="M16,16.7C16,16.7,16,16.7,16,16.7c-0.3,0.5-0.6,1-0.9,1.5c0,0,0,0,0,0c-0.1,0.1-0.2,0.2-0.3,0.3c0,0,0.1-0.1,0.1-0.1
			c0,0,0,0-0.1,0c0.3-0.1,0.6,0.1,0.9,0.2c0.3,0.1,0.7,0.2,1.1,0.2c0.6,0,1.2-0.1,1.7-0.5c0.2-0.1,0.3-0.4,0.4-0.6
			c0.2-0.3,0.4-0.7,0.6-1c0.1-0.3,0.3-0.5,0.4-0.8c0,0,0.1-0.3,0-0.2c-0.1,0.1-0.3,0.2-0.5,0.3c0,0,0,0,0.1,0
			c-0.6,0.3-1.4,0.2-2,0.1c-0.2,0-0.3-0.1-0.5-0.1c-0.2-0.1-0.3-0.1-0.5-0.1c-0.2,0-0.3,0.1-0.4,0.3c-0.5,0.5-0.8,1.2-1.1,1.8
			c0,0.1-0.3,0.5-0.3,0.6c0,0.1,0,0.1,0,0.1c0.1,0,0.1-0.1,0.1-0.1C15.4,18,15.7,17.3,16,16.7L16,16.7z"/>
	</g>
</g>
<g>
	<g>
		<path d="M21.7,10.3c0-0.2-0.1-0.3-0.2-0.4c-0.1-0.1-0.2-0.2-0.4-0.3c-0.2-0.1-0.5,0.1-0.6,0.3c-0.3,0.3-0.6,0.6-0.8,1
			c-0.6,0.9-1.2,1.9-1.5,2.9c-0.1,0.3-0.1,0.6-0.2,0.9c0,0.3-0.1,0.6-0.1,0.9c0,0.3,0.3,0.4,0.6,0.4c0.3,0,0.6-0.1,0.8-0.3
			c0.2-0.1,0.3-0.4,0.4-0.6c0.2-0.3,0.4-0.7,0.6-1c0.1-0.3,0.3-0.5,0.4-0.8c0,0,0.1-0.3,0-0.2c-0.1,0.1-0.2,0.1-0.3,0.2
			c0,0,0,0,0.1,0c-0.3,0.1-0.9,0.2-1-0.2c0,0,0,0,0,0.1c0-0.3,0-0.6,0.1-0.9c0-0.3,0.1-0.6,0.1-0.9c0,0,0-0.1,0-0.1c0,0,0,0,0,0
			c0,0,0.1-0.2,0.1-0.2c0,0,0,0.1,0,0.1c0-0.1,0-0.1-0.1,0.1c-0.2,0.4-0.4,0.8-0.7,1.2c-0.2,0.2,0,0,0,0c-0.1,0.1,0,0,0.1-0.1
			c0.1-0.1,0.2-0.2,0.3-0.2c0,0,0,0-0.1,0c0.2-0.1,0.3,0,0.5,0.1c0.1,0.1,0.3,0.2,0.3,0.4c0,0,0,0,0-0.1c0,0,0,0,0,0
			c0,0.1,0.1,0,0.2-0.1c0.2-0.2,0.4-0.5,0.5-0.7c0.2-0.3,0.4-0.7,0.6-1c0-0.1,0.1-0.2,0.1-0.3C21.6,10.5,21.7,10.4,21.7,10.3
			L21.7,10.3z"/>
	</g>
</g>
<g>
	<g>
		<path d="M20.8,8c1-0.8,1.6-2,2.1-3.1C22.5,5.6,22,6.3,21.6,7c-0.7,3.9-1.2,7.9-1.6,11.8c0,0.2,0.2-0.1,0.2-0.1
			c0.2-0.1,0.4-0.6,0.5-0.7c0.3-0.5,0.8-1.1,0.8-1.7c0.4-4,1-7.9,1.6-11.8c0-0.2-0.5,0.5-0.5,0.5c-0.3,0.5-0.7,1-0.9,1.6
			c0.9-2,1.3-1.8,0.5-1.2c-0.4,0.4-0.7,1.1-1,1.5c-0.1,0.2-0.4,0.5-0.4,0.8C20.8,7.9,20.7,8.1,20.8,8L20.8,8z"/>
	</g>
</g>
<g>
	<path d="M4.6,17.4c-0.9,0-1.8-0.3-2.7-0.8c-0.1-0.1-0.1-0.2-0.1-0.3c0.1-0.4,1.3-2.5,1.6-2.5c0.9,0.5,1.8,0.8,2.7,0.8
		c0.9,0,1.7-0.3,2.3-0.8c0-0.3,0.1-0.6,0.1-0.9c0.1-0.9,0-1.9,0-2.8l0-0.3c0-0.2,0.1-0.4,0.2-0.6L8.7,9c0.2-0.3,0.4-0.7,0.6-1
		c0.2-0.3,0.3-0.5,0.5-0.8c0.1-0.1,0.2-0.2,0.2-0.2h0.1l0,0.2l0,0.4c0.1,1.2,0.1,2.4-0.1,3.6c-0.3,1.3-0.9,2.7-2.1,4.3
		c-0.8,1.1-1.7,1.7-2.8,1.9C5,17.4,4.8,17.4,4.6,17.4L4.6,17.4z"/>
	<path class="st0" d="M10.1,7.2C10.1,7.2,10.1,7.2,10.1,7.2c0.1,1.4,0.2,2.7-0.1,4c-0.3,1.5-1.2,3-2.1,4.3c-0.7,0.9-1.6,1.6-2.8,1.8
		c-0.2,0-0.4,0.1-0.6,0.1c-0.9,0-1.8-0.3-2.6-0.8c-0.2-0.1,1.3-2.6,1.5-2.6c0,0,0,0,0,0c0.8,0.5,1.7,0.8,2.6,0.8
		c0.8,0,1.7-0.2,2.4-0.8c0.1-0.3,0.1-0.7,0.2-1c0.1-1,0-2.1,0-3.1c0-0.2,0.2-0.5,0.3-0.6c0.2-0.3,0.4-0.7,0.6-1
		c0.2-0.2,0.3-0.5,0.5-0.7C10,7.3,10,7.2,10.1,7.2 M10.1,6.9c-0.2,0-0.3,0.1-0.3,0.2C9.5,7.4,9.4,7.7,9.2,7.9C9,8.2,8.8,8.6,8.6,9
		c0,0,0,0.1-0.1,0.1C8.5,9.3,8.3,9.5,8.3,9.7l0,0.3c0,0.9,0.1,1.8,0,2.8c0,0.3-0.1,0.6-0.1,0.9c-0.6,0.5-1.3,0.7-2.1,0.7
		c-0.8,0-1.7-0.3-2.5-0.8l-0.1,0l-0.1,0c-0.4,0-1.6,2.2-1.7,2.6c-0.1,0.2,0,0.4,0.1,0.5c0.9,0.6,1.8,0.8,2.8,0.8
		c0.2,0,0.5,0,0.7-0.1c1.2-0.2,2.1-0.8,2.9-1.9c1.2-1.6,1.8-3,2.1-4.4c0.2-1.2,0.2-2.4,0.1-3.6l0-0.4C10.3,7,10.2,6.9,10.1,6.9
		L10.1,6.9z"/>
</g>
<g>
	<g>
		<path d="M3.8,9.2c0.9,0,1.9,0.2,2.7,0.5c0.8,0.3,1.7,0.7,2.6,0.6c0.9-0.1,1.8-0.5,2.5-0.8c0.4-0.2,0.7-0.4,1-0.7
			c0.3-0.3,0.5-0.6,0.7-0.9c0.4-0.5,0.8-1.1,1.1-1.8c0.1-0.1,0.4-1,0.1-0.6c-0.2,0.3-0.4,0.7-0.7,0.9c-0.3,0.3-0.7,0.4-1.1,0.6
			c-0.8,0.3-1.7,0.7-2.5,0.7C9.5,7.7,8.7,7.3,7.9,7C7.1,6.7,6.2,6.6,5.3,6.6C5.2,6.6,5,6.9,5,6.9C4.8,7.2,4.6,7.5,4.4,7.8
			C4.3,8.1,4.1,8.4,4,8.7C3.9,8.8,3.8,9.2,3.8,9.2L3.8,9.2z"/>
	</g>
</g>
<g>
	<g>
		<path d="M1.9,16.1c0,0.2,0,0.3,0.1,0.5c0,0,0,0,0-0.1c0,0.1,0,0.3,0,0.4c0,0,0-0.1,0-0.1c0,0,0,0,0,0c0,0.1,0,0,0.1-0.2
			c0.1-0.2,0.2-0.4,0.3-0.6c0.1-0.1,0.1-0.2,0.2-0.3c0.1-0.2,0.3-0.4,0.4-0.6c0.3-0.4,0.4-0.5,0.3-0.4c0,0,0,0,0,0
			c0,0,0.1-0.1,0.1-0.1c-0.2,0.2-0.4,0.3-0.6,0.4c0,0,0,0,0.1,0c-0.1,0-0.2,0.1-0.2,0.1c-0.1,0-0.2,0.2-0.3,0.3
			c-0.2,0.3-0.4,0.6-0.6,0.9c-0.2,0.3-0.4,0.6-0.5,0.9C1,17.4,1,17.4,1,17.5c0,0.1-0.1,0.1,0,0.2c0.2-0.1,0.4-0.2,0.6-0.3
			c0.4-0.2,0.6-0.5,0.8-0.9c0.2-0.3,0.4-0.7,0.6-1c0.2-0.3,0.3-0.6,0.4-0.9c0-0.1,0.1-0.3,0.1-0.4c0-0.2,0-0.4-0.1-0.6
			c0,0,0,0,0,0.1c0,0,0-0.1,0-0.1c0-0.1,0-0.1,0-0.1c-0.1,0-0.1,0.1-0.1,0.1c-0.2,0.2-0.4,0.5-0.5,0.7c-0.2,0.3-0.4,0.7-0.6,1
			c0,0.1-0.1,0.2-0.1,0.3C2,15.8,1.9,15.9,1.9,16.1L1.9,16.1z"/>
	</g>
</g>
<g>
	<g>
		<path d="M3.7,9.4c0,0.2,0,0.3,0.1,0.5c0,0,0,0,0-0.1c0,0.1,0,0.3,0,0.4c0,0,0-0.1,0-0.1c0,0,0,0,0,0c0,0.1,0,0,0.1-0.2
			C4,9.8,4.1,9.6,4.2,9.4c0.1-0.1,0.1-0.2,0.2-0.3c0.1-0.2,0.3-0.4,0.4-0.6C5,8.1,5.1,8,5,8.1c0,0,0,0,0,0C5,8.1,5.1,8,5.1,8
			C4.9,8.2,4.7,8.3,4.5,8.4c0,0,0,0,0.1,0c-0.1,0-0.2,0.1-0.2,0.1C4.2,8.5,4.1,8.7,4,8.8C3.8,9.1,3.6,9.4,3.4,9.7
			c-0.2,0.3-0.4,0.6-0.5,0.9c0,0.1-0.1,0.1-0.1,0.2c0,0.1-0.1,0.1,0,0.2C3,11,3.2,10.9,3.4,10.8c0.4-0.2,0.6-0.5,0.8-0.9
			c0.2-0.3,0.4-0.7,0.6-1C5,8.6,5.1,8.3,5.2,8c0-0.1,0.1-0.3,0.1-0.4c0-0.2,0-0.4-0.1-0.6c0,0,0,0,0,0.1c0,0,0-0.1,0-0.1
			c0-0.1,0-0.1,0-0.1C5.2,6.9,5.1,7,5.1,7C4.9,7.3,4.7,7.5,4.6,7.8C4.4,8.1,4.2,8.4,4,8.8C4,8.9,3.9,9,3.9,9.1
			C3.8,9.2,3.8,9.3,3.7,9.4L3.7,9.4z"/>
	</g>
</g>
</svg>
