<?xml version="1.0" encoding="utf-8"?>
<!-- Generator: Adobe Illustrator 27.8.1, SVG Export Plug-In . SVG Version: 6.00 Build 0)  -->
<svg version="1.1" id="Layer_1" xmlns="http://www.w3.org/2000/svg" xmlns:xlink="http://www.w3.org/1999/xlink" x="0px" y="0px"
	 viewBox="0 0 24 24" style="enable-background:new 0 0 24 24;" xml:space="preserve">
<style type="text/css">
	.st0{fill:#FF9100;}
	.st1{fill:#FFCE00;stroke:#FF9100;stroke-miterlimit:10;}
	.st2{fill:#00C3FF;stroke:#00708E;stroke-miterlimit:10;}
</style>
<g>
	<g>
		<g>
			<path class="st0" d="M12.7,3.4c0,0,0.3,0,0.4,0v-3h-0.8v3C12.5,3.4,12.7,3.4,12.7,3.4z"/>
			<path class="st0" d="M6.9,5.6L4.8,3.5L4.2,4.1l2.1,2.1C6.6,6,6.7,5.8,6.9,5.6z"/>
			<path class="st0" d="M4.1,12c0,0,0-0.3,0-0.4h-3v0.8h3C4.1,12.3,4.1,12,4.1,12z"/>
			<path class="st0" d="M6.4,17.8l-2.1,2.1l0.6,0.6l2.1-2.1C6.7,18.2,6.6,18,6.4,17.8z"/>
			<path class="st0" d="M12.7,20.6c0,0-0.3,0-0.4,0v3h0.8v-3C13,20.6,12.7,20.6,12.7,20.6z"/>
		</g>
	</g>
	<circle class="st1" cx="12.7" cy="12" r="7.4"/>
	<circle class="st2" cx="16.1" cy="12" r="6.8"/>
</g>
</svg>
